<svg width="10" height="10" xmlns="http://www.w3.org/2000/svg" clip-rule="evenodd">
 <defs>
  <style type="text/css">.fil1 {fill:none}
    .fil0 {fill:black;fill-rule:nonzero}</style>
 </defs>
 <g>
  <title>background</title>
  <rect x="-1" y="-1" width="12" height="12" id="canvas_background" fill="none"/>
 </g>
 <g>
  <title>Layer 1</title>
  <g stroke="null" id="svg_1">
   <path stroke="null" class="fil0" d="m4.07021,6.543429l0.27715,0.086027c-0.042558,0.151669 -0.113171,0.264224 -0.212147,0.337966c-0.098655,0.073399 -0.224375,0.11027 -0.376475,0.11027c-0.18807,0 -0.342808,-0.063056 -0.463907,-0.188868c-0.121085,-0.126127 -0.181803,-0.298496 -0.181803,-0.516792c0,-0.231239 0.061052,-0.410736 0.182794,-0.538805c0.121755,-0.127741 0.281784,-0.191769 0.480406,-0.191769c0.173219,0 0.31411,0.050128 0.422327,0.150698c0.064681,0.059185 0.11285,0.144569 0.145191,0.25581l-0.283431,0.066299c-0.016498,-0.072113 -0.051477,-0.129027 -0.104922,-0.170755c-0.053124,-0.041714 -0.117791,-0.062413 -0.193681,-0.062413c-0.104922,0 -0.190387,0.036871 -0.25571,0.110927c-0.065323,0.073741 -0.097985,0.193397 -0.097985,0.35898c0,0.175611 0.031992,0.300767 0.096659,0.375151c0.064346,0.074713 0.14815,0.111898 0.25109,0.111898c0.076225,0 0.141548,-0.0236 0.196319,-0.071156c0.054785,-0.047214 0.094049,-0.121927 0.118126,-0.223468zm0.522964,0.510663l0,-1.389021l0.458952,0c0.173888,0 0.287395,0.007114 0.340184,0.021014c0.081166,0.0207 0.149462,0.065984 0.204233,0.13584c0.054785,0.069842 0.082171,0.160083 0.082171,0.270353c0,0.085384 -0.015842,0.157183 -0.047513,0.215068c-0.031685,0.058213 -0.071604,0.103813 -0.120443,0.137126c-0.04849,0.032985 -0.097985,0.054971 -0.148136,0.065656c-0.06831,0.013257 -0.167286,0.020043 -0.296956,0.020043l-0.186423,0l0,0.52392l-0.286069,0zm0.286069,-1.15391l0,0.393908l0.156399,0c0.112836,0 0.188391,-0.007114 0.226343,-0.021671c0.037938,-0.014557 0.06764,-0.037199 0.089415,-0.068242c0.021453,-0.031043 0.032341,-0.066942 0.032341,-0.108013c0,-0.050456 -0.015186,-0.09217 -0.045545,-0.125169c-0.030024,-0.032657 -0.068631,-0.053357 -0.114818,-0.061442c-0.034309,-0.006471 -0.10294,-0.009372 -0.20588,-0.009372l-0.138254,0zm1.036031,1.15391l0,-1.389021l0.971699,0l0,0.235111l-0.685295,0l0,0.32858l0.591595,0l0,0.235111l-0.591595,0l0,0.590219l-0.28639,0l-0.000014,0z" id="svg_2"/>
  </g>
  <path stroke="null" class="fil0" d="m1.11155,4.555887c0,0.080443 0.072299,0.145665 0.161472,0.145665c0.089173,0 0.161472,-0.065221 0.161472,-0.145665l0,-4.097561l5.654571,0l1.47642,1.331884l0,2.765678c0,0.080461 0.072299,0.145665 0.161472,0.145665c0.089193,0 0.161472,-0.065203 0.161472,-0.145665l0,-2.825983l0,0c0,-0.037272 -0.015764,-0.074544 -0.047291,-0.102985l0,0l-1.570356,-1.416624c-0.029287,-0.026729 -0.069917,-0.043281 -0.114847,-0.043281l-5.882912,0c-0.089193,0 -0.161472,0.065203 -0.161472,0.145665l0,4.243226l0,-0.000018zm7.776899,3.868103c0,-0.080461 -0.072299,-0.145665 -0.161472,-0.145665c-0.089193,0 -0.161472,0.065203 -0.161472,0.145665l0,1.211219l-7.131011,0l0,-1.211219c0,-0.080461 -0.072299,-0.145665 -0.161472,-0.145665c-0.089193,0 -0.161472,0.065203 -0.161472,0.145665l0,1.356883c0,0.080443 0.072279,0.145665 0.161472,0.145665l7.453955,0c0.089173,0 0.161472,-0.065221 0.161472,-0.145665l0,-1.356883z" id="svg_3"/>
  <path stroke="null" class="fil0" d="m7.238078,0.518449c0,-0.07917 -0.063054,-0.143359 -0.140825,-0.143359c-0.07777,0 -0.140825,0.064189 -0.140825,0.143359l0,0.697406c0,0.231346 0.092874,0.441582 0.2425,0.593883c0.149609,0.152319 0.356128,0.246864 0.583384,0.246864l0.685077,0c0.07777,0 0.140825,-0.064189 0.140825,-0.143359c0,-0.07917 -0.063054,-0.143359 -0.140825,-0.143359l-0.685077,0c-0.149503,0 -0.28554,-0.062379 -0.384258,-0.162856c-0.0987,-0.100495 -0.159977,-0.23898 -0.159977,-0.391173l0,-0.697406z" id="svg_4"/>
  <path stroke="null" class="fil0" d="m0.892016,8.025409l8.215967,0l0,-3.242498l-8.215967,0l0,3.242498zm8.359593,0.264104l-8.50322,0c-0.079318,0 -0.143626,-0.059126 -0.143626,-0.132052l0,-3.506602c0,-0.072926 0.064309,-0.132052 0.143626,-0.132052l8.50322,0c0.079318,0 0.143626,0.059126 0.143626,0.132052l0,3.506602c0,0.072926 -0.064309,0.132052 -0.143626,0.132052z" id="svg_5"/>
  <path stroke="null" class="fil0" d="m2.771887,2.5703c-0.077646,0 -0.140599,0.03582 -0.140599,0.08c0,0.04418 0.062953,0.08 0.140599,0.08l3.029353,0c0.077646,0 0.140599,-0.03582 0.140599,-0.08c0,-0.04418 -0.062953,-0.08 -0.140599,-0.08l-3.029353,0z" id="svg_6"/>
  <path stroke="null" class="fil0" d="m2.634241,3.01156c-0.064487,0 -0.116771,0.03582 -0.116771,0.08c0,0.04418 0.052284,0.08 0.116771,0.08l3.542458,0c0.064487,0 0.116771,-0.03582 0.116771,-0.08c0,-0.04418 -0.052284,-0.08 -0.116771,-0.08l-3.542458,0z" id="svg_7"/>
  <path stroke="null" class="fil0" d="m2.643124,3.542c-0.085809,0 -0.155381,0.03582 -0.155381,0.08c0,0.04418 0.069572,0.08 0.155381,0.08l4.713752,0c0.085809,0 0.155381,-0.03582 0.155381,-0.08c0,-0.04418 -0.069572,-0.08 -0.155381,-0.08l-4.713752,0z" id="svg_8"/>
  <text x="0" y="23.66666" fill="#000000" font-size="5px" font-weight="bold" font-family="'Helvetica Neue', Helvetica, Arial-Unicode, Arial, Sans-serif" id="svg_10">Created by IYIKON</text>
  <text x="0" y="28.66666" fill="#000000" font-size="5px" font-weight="bold" font-family="'Helvetica Neue', Helvetica, Arial-Unicode, Arial, Sans-serif" id="svg_11">from the Noun Project</text>
 </g>
</svg>