<svg width="10" height="10" xmlns="http://www.w3.org/2000/svg" clip-rule="evenodd">
 <defs>
  <style type="text/css">.fil1 {fill:none}
    .fil0 {fill:black;fill-rule:nonzero}</style>
 </defs>
 <g>
  <title>background</title>
  <rect fill="none" id="canvas_background" height="12" width="12" y="-1" x="-1"/>
 </g>
 <g>
  <title>Layer 1</title>
  <g id="svg_1">
   <path id="svg_2" d="m3.6672,5.26031l0.19856,0.06288c-0.03049,0.11086 -0.08108,0.19313 -0.15199,0.24703c-0.07068,0.05365 -0.16075,0.0806 -0.26972,0.0806c-0.13474,0 -0.2456,-0.04609 -0.33236,-0.13805c-0.08675,-0.09219 -0.13025,-0.21818 -0.13025,-0.37774c0,-0.16902 0.04374,-0.30022 0.13096,-0.39383c0.08723,-0.09337 0.20188,-0.14017 0.34418,-0.14017c0.1241,0 0.22504,0.03664 0.30257,0.11015c0.04634,0.04326 0.08085,0.10567 0.10402,0.18698l-0.20306,0.04846c-0.01182,-0.05271 -0.03688,-0.09431 -0.07517,-0.12481c-0.03806,-0.03049 -0.08439,-0.04562 -0.13876,-0.04562c-0.07517,0 -0.1364,0.02695 -0.1832,0.08108c-0.0468,0.0539 -0.0702,0.14136 -0.0702,0.26239c0,0.12836 0.02292,0.21984 0.06925,0.27421c0.0461,0.05461 0.10614,0.08179 0.17989,0.08179c0.05461,0 0.10141,-0.01725 0.14065,-0.05201c0.03925,-0.03451 0.06738,-0.08912 0.08463,-0.16334zm0.37467,0.37326l0,-1.01528l0.32881,0c0.12458,0 0.2059,0.0052 0.24372,0.01536c0.05815,0.01513 0.10708,0.04823 0.14632,0.09929c0.03925,0.05105 0.05887,0.11701 0.05887,0.19761c0,0.06241 -0.01135,0.11489 -0.03404,0.1572c-0.0227,0.04255 -0.0513,0.07588 -0.08629,0.10023c-0.03474,0.02411 -0.0702,0.04018 -0.10613,0.04799c-0.04894,0.00969 -0.11985,0.01465 -0.21275,0.01465l-0.13356,0l0,0.38295l-0.20495,0zm0.20495,-0.84343l0,0.28792l0.11205,0c0.08084,0 0.13497,-0.0052 0.16216,-0.01584c0.02718,-0.01064 0.04846,-0.02719 0.06406,-0.04988c0.01537,-0.02269 0.02317,-0.04893 0.02317,-0.07895c0,-0.03688 -0.01088,-0.06737 -0.03263,-0.09149c-0.02151,-0.02387 -0.04917,-0.039 -0.08226,-0.04491c-0.02458,-0.00473 -0.07375,-0.00685 -0.1475,-0.00685l-0.09905,0zm0.74225,0.84343l0,-1.01528l0.69616,0l0,0.17185l-0.49097,0l0,0.24017l0.42384,0l0,0.17185l-0.42384,0l0,0.43141l-0.20518,0l-0.00001,0z" class="fil0"/>
  </g>
  <path id="svg_3" d="m2.40683,4.06374c0,0.04418 0.03582,0.08 0.08,0.08c0.04418,0 0.08,-0.03582 0.08,-0.08l0,-2.25041l2.80151,0l0.73148,0.73148l0,1.51893c0,0.04419 0.03582,0.08 0.08,0.08c0.04419,0 0.08,-0.03581 0.08,-0.08l0,-1.55205l0,0c0,-0.02047 -0.00781,-0.04094 -0.02343,-0.05656l0,0l-0.77802,-0.77802c-0.01451,-0.01468 -0.03464,-0.02377 -0.0569,-0.02377l-2.91464,0c-0.04419,0 -0.08,0.03581 -0.08,0.08l0,2.33041l0,-0.00001zm3.853,2.12439c0,-0.04419 -0.03582,-0.08 -0.08,-0.08c-0.04419,0 -0.08,0.03581 -0.08,0.08l0,0.66521l-3.533,0l0,-0.66521c0,-0.04419 -0.03582,-0.08 -0.08,-0.08c-0.04419,0 -0.08,0.03581 -0.08,0.08l0,0.74521c0,0.04418 0.03581,0.08 0.08,0.08l3.693,0c0.04418,0 0.08,-0.03582 0.08,-0.08l0,-0.74521z" class="fil0"/>
  <path id="svg_4" d="m5.48147,1.73333c0,-0.04418 -0.03582,-0.08 -0.08,-0.08c-0.04418,0 -0.08,0.03582 -0.08,0.08l0,0.38918c0,0.1291 0.05276,0.24642 0.13776,0.33141c0.08499,0.085 0.20231,0.13776 0.33141,0.13776l0.38918,0c0.04418,0 0.08,-0.03582 0.08,-0.08c0,-0.04418 -0.03582,-0.08 -0.08,-0.08l-0.38918,0c-0.08493,0 -0.16221,-0.03481 -0.21829,-0.09088c-0.05607,-0.05608 -0.09088,-0.13336 -0.09088,-0.21829l0,-0.38918z" class="fil0"/>
  <path id="svg_5" d="m2.04518,6.10811l4.5763,0l0,-1.96438l-4.5763,0l0,1.96438zm4.6563,0.16l-4.7363,0c-0.04418,0 -0.08,-0.03582 -0.08,-0.08l0,-2.12438c0,-0.04418 0.03582,-0.08 0.08,-0.08l4.7363,0c0.04418,0 0.08,0.03582 0.08,0.08l0,2.12438c0,0.04418 -0.03582,0.08 -0.08,0.08z" class="fil0"/>
  <path id="svg_6" d="m3.11986,2.5703c-0.04418,0 -0.08,0.03582 -0.08,0.08c0,0.04418 0.03582,0.08 0.08,0.08l1.72368,0c0.04418,0 0.08,-0.03582 0.08,-0.08c0,-0.04418 -0.03582,-0.08 -0.08,-0.08l-1.72368,0z" class="fil0"/>
  <path id="svg_7" d="m3.11986,3.01156c-0.04418,0 -0.08,0.03582 -0.08,0.08c0,0.04418 0.03582,0.08 0.08,0.08l2.42694,0c0.04418,0 0.08,-0.03582 0.08,-0.08c0,-0.04418 -0.03582,-0.08 -0.08,-0.08l-2.42694,0z" class="fil0"/>
  <path id="svg_8" d="m3.11986,3.45282c-0.04418,0 -0.08,0.03582 -0.08,0.08c0,0.04418 0.03582,0.08 0.08,0.08l2.42694,0c0.04418,0 0.08,-0.03582 0.08,-0.08c0,-0.04418 -0.03582,-0.08 -0.08,-0.08l-2.42694,0z" class="fil0"/>
  <rect stroke="null" x="1.874414" y="1.655732" id="svg_9" height="5.386436" width="4.949072" class="fil1"/>
  <text id="svg_10" font-family="'Helvetica Neue', Helvetica, Arial-Unicode, Arial, Sans-serif" font-weight="bold" font-size="5px" fill="#000000" y="23.66666" x="0">Created by IYIKON</text>
  <text id="svg_11" font-family="'Helvetica Neue', Helvetica, Arial-Unicode, Arial, Sans-serif" font-weight="bold" font-size="5px" fill="#000000" y="28.66666" x="0">from the Noun Project</text>
 </g>
</svg>